<svg width="24" height="24" fill="none" xmlns="http://www.w3.org/2000/svg"><path d="M23.474 4.94c-.455-.618-1.163-.994-1.895-.994H6.19L5.71 1.96C5.431.805 4.471 0 3.36 0H.783C.353 0 0 .376 0 .832c0 .457.354.832.783.832h2.578c.379 0 .707.269.808.672l3.083 13.047c.278 1.154 1.238 1.96 2.35 1.96h10.082c1.111 0 2.097-.806 2.35-1.96l1.895-8.269a2.58 2.58 0 0 0-.455-2.174Zm-1.087 1.798-1.895 8.269c-.1.402-.43.671-.808.671H9.602c-.38 0-.708-.269-.809-.671l-2.198-9.37h14.984c.252 0 .505.135.657.35.151.214.227.483.151.751ZM10.132 18.416c-1.44 0-2.627 1.262-2.627 2.792 0 1.53 1.187 2.792 2.627 2.792 1.44 0 2.628-1.262 2.628-2.792 0-1.53-1.187-2.792-2.628-2.792Zm0 3.893c-.58 0-1.036-.483-1.036-1.1 0-.618.455-1.102 1.036-1.102.582 0 1.036.483 1.036 1.101 0 .59-.48 1.1-1.036 1.1ZM18.825 18.416c-1.44 0-2.628 1.262-2.628 2.792 0 1.53 1.187 2.792 2.628 2.792 1.44 0 2.627-1.262 2.627-2.792-.025-1.53-1.187-2.792-2.628-2.792Zm0 3.893c-.582 0-1.037-.483-1.037-1.1 0-.618.455-1.102 1.037-1.102.58 0 1.036.483 1.036 1.101 0 .59-.48 1.1-1.037 1.1Z" fill="#242734"/></svg>