<svg width="20" height="20" fill="none" xmlns="http://www.w3.org/2000/svg"><path d="M7.625 9.383H3.458A1.617 1.617 0 0 1 1.85 7.775V3.608A1.617 1.617 0 0 1 3.458 2h4.167a1.617 1.617 0 0 1 1.608 1.608v4.167a1.616 1.616 0 0 1-1.608 1.608ZM3.458 3.25a.367.367 0 0 0-.358.358v4.167a.358.358 0 0 0 .358.358h4.167a.358.358 0 0 0 .358-.358V3.608a.358.358 0 0 0-.358-.358H3.458ZM16.542 9.383h-4.167a1.616 1.616 0 0 1-1.608-1.608V3.608A1.616 1.616 0 0 1 12.375 2h4.167a1.617 1.617 0 0 1 1.608 1.608v4.167a1.616 1.616 0 0 1-1.608 1.608ZM12.375 3.25a.358.358 0 0 0-.358.358v4.167a.358.358 0 0 0 .358.358h4.167a.359.359 0 0 0 .358-.358V3.608a.359.359 0 0 0-.358-.358h-4.167ZM7.625 18H3.458a1.617 1.617 0 0 1-1.608-1.608v-4.167a1.617 1.617 0 0 1 1.608-1.608h4.167a1.616 1.616 0 0 1 1.608 1.608v4.167A1.617 1.617 0 0 1 7.625 18Zm-4.167-6.133a.358.358 0 0 0-.358.358v4.167a.367.367 0 0 0 .358.358h4.167a.358.358 0 0 0 .358-.358v-4.167a.358.358 0 0 0-.358-.358H3.458ZM16.542 18h-4.167a1.617 1.617 0 0 1-1.608-1.608v-4.167a1.616 1.616 0 0 1 1.608-1.608h4.167a1.616 1.616 0 0 1 1.608 1.608v4.167A1.617 1.617 0 0 1 16.542 18Zm-4.167-6.133a.358.358 0 0 0-.358.358v4.167a.358.358 0 0 0 .358.358h4.167a.359.359 0 0 0 .358-.358v-4.167a.358.358 0 0 0-.358-.358h-4.167Z" fill="#fff"/></svg>