<svg width="24" height="24" fill="none" xmlns="http://www.w3.org/2000/svg"><path d="M23.963 4.296v-.05a.503.503 0 0 0-.073-.1l-.041-.04a.523.523 0 0 0-.11-.07h-.042L12.22.03a.542.542 0 0 0-.355 0L.386 4.036H.344a.524.524 0 0 0-.11.07l-.04.04a.495.495 0 0 0-.074.1v.05a.498.498 0 0 0-.12.175v15.022c0 .211.138.4.344.471l11.479 4.006a.544.544 0 0 0 .333.005l11.479-4.006a.503.503 0 0 0 .365-.476V4.471a.483.483 0 0 0-.037-.175ZM12 7.946l-1.837-.64 9.34-3.666 2.446.831L12 7.947ZM5.217 6.646l2.609.911v2.218L6.63 8.628a.538.538 0 0 0-.522-.12l-.892.275V6.645Zm1.044-.706 9.584-3.505a.534.534 0 0 0 .104-.06l2.13.745-9.392 3.676-2.426-.856ZM12 .996l2.473.867-9.72 3.555L2.05 4.47 12 .996ZM1.043 19.143V5.188l3.13 1.091v3.2c0 .162.081.313.218.408a.54.54 0 0 0 .471.068l1.258-.4 1.857 1.782c.15.144.375.188.57.11a.501.501 0 0 0 .322-.466V7.917l2.609.911v13.955l-10.435-3.64Zm11.479 3.64V8.828l10.434-3.64v13.955l-10.434 3.64Z" fill="#242734"/></svg>