<svg width="24" height="24" fill="none" xmlns="http://www.w3.org/2000/svg"><path d="M23.96 7.497C23.61 3.64 20.88.843 17.465.843c-2.275 0-4.359 1.225-5.531 3.187C10.772 2.042 8.774.843 6.535.843 3.12.843.39 3.64.04 7.496c-.027.17-.14 1.067.204 2.529.498 2.108 1.647 4.026 3.323 5.544l8.361 7.588 8.505-7.587c1.676-1.519 2.825-3.436 3.323-5.545.345-1.462.232-2.358.204-2.528Zm-1.103 2.316c-.454 1.926-1.507 3.68-3.041 5.07l-7.882 7.033-7.747-7.03c-1.537-1.393-2.59-3.147-3.044-5.073C.816 8.43.95 7.648.951 7.643l.007-.047c.3-3.378 2.645-5.83 5.577-5.83 2.163 0 4.068 1.33 4.972 3.469l.425 1.007.425-1.007c.89-2.107 2.894-3.469 5.109-3.469 2.931 0 5.277 2.453 5.583 5.875 0 .007.135.789-.192 2.172Z" fill="#242734"/></svg>