<svg width="131" height="16" fill="none" xmlns="http://www.w3.org/2000/svg"><path d="M20.85.54 16.36 15h-2.43l-3.16-9.88a6.728 6.728 0 0 1-.24-.88c-.04.167-.08.323-.12.47-.04.147-.083.283-.13.41L7.09 15H4.65L.17.54h2.25A.95.95 0 0 1 3 .71c.16.107.267.253.32.44L5.78 9.8c.053.213.103.447.15.7.053.247.107.507.16.78.053-.28.11-.543.17-.79.067-.247.137-.477.21-.69l2.84-8.65a.959.959 0 0 1 .31-.42.906.906 0 0 1 .58-.19h.79c.233 0 .423.057.57.17.147.113.257.26.33.44l2.83 8.65c.14.413.267.89.38 1.43.087-.527.183-1.003.29-1.43l2.46-8.65c.04-.167.14-.31.3-.43a.983.983 0 0 1 .59-.18h2.11ZM25.326 15h-2.7V.54h2.7V15Zm11.707-2.22V15h-8.47V.54h2.69v12.24h5.78Zm14.76-5.01c0 1.06-.176 2.033-.53 2.92a6.708 6.708 0 0 1-1.49 2.29 6.666 6.666 0 0 1-2.31 1.49c-.9.353-1.9.53-3 .53h-5.51V.54h5.51c1.1 0 2.1.18 3 .54.9.353 1.67.85 2.31 1.49a6.603 6.603 0 0 1 1.49 2.28c.354.887.53 1.86.53 2.92Zm-2.76 0c0-.793-.106-1.503-.32-2.13-.206-.633-.51-1.167-.91-1.6a3.888 3.888 0 0 0-1.44-1.01c-.56-.233-1.193-.35-1.9-.35h-2.81v10.18h2.81c.707 0 1.34-.117 1.9-.35a3.943 3.943 0 0 0 1.44-1c.4-.44.704-.973.91-1.6.214-.633.32-1.347.32-2.14ZM64.1 11.59c.146 0 .276.057.39.17l1.06 1.15a5.812 5.812 0 0 1-2.17 1.67c-.854.387-1.88.58-3.08.58-1.074 0-2.04-.183-2.9-.55a6.394 6.394 0 0 1-2.19-1.53 6.759 6.759 0 0 1-1.4-2.34c-.32-.907-.48-1.897-.48-2.97 0-1.087.173-2.08.52-2.98a6.89 6.89 0 0 1 1.46-2.34 6.623 6.623 0 0 1 2.26-1.52c.873-.367 1.84-.55 2.9-.55 1.053 0 1.986.173 2.8.52.82.347 1.516.8 2.09 1.36l-.9 1.25a.785.785 0 0 1-.21.21.558.558 0 0 1-.34.09.692.692 0 0 1-.31-.08 8.076 8.076 0 0 1-.35-.21 8.835 8.835 0 0 0-.44-.28c-.167-.1-.36-.19-.58-.27a4.123 4.123 0 0 0-.77-.21c-.287-.06-.62-.09-1-.09a4.44 4.44 0 0 0-1.78.35 3.79 3.79 0 0 0-1.38 1c-.387.433-.687.967-.9 1.6-.214.627-.32 1.343-.32 2.15 0 .813.113 1.537.34 2.17.233.633.546 1.167.94 1.6a4.05 4.05 0 0 0 1.39 1 4.35 4.35 0 0 0 1.72.34c.366 0 .696-.02.99-.06.3-.04.573-.103.82-.19a3.64 3.64 0 0 0 .71-.33c.226-.14.45-.31.67-.51a.825.825 0 0 1 .21-.14c.073-.04.15-.06.23-.06ZM79.58.54V15h-2.7V8.68h-6.79V15h-2.7V.54h2.7v6.22h6.79V.54h2.7Zm5.92 2.14v4.01h5.06v2.07h-5.06v4.09h6.42V15h-9.12V.54h9.12v2.14h-6.42Zm13.174 4.74c.507 0 .947-.063 1.32-.19.38-.127.69-.3.93-.52.247-.227.43-.493.55-.8.12-.307.18-.643.18-1.01 0-.733-.243-1.297-.73-1.69-.48-.393-1.216-.59-2.21-.59h-1.72v4.8h1.68Zm6.92 7.58h-2.43c-.46 0-.793-.18-1-.54l-3.04-4.63a1.05 1.05 0 0 0-.38-.37c-.133-.073-.333-.11-.6-.11h-1.15V15h-2.69V.54h4.41c.98 0 1.82.103 2.52.31.707.2 1.284.483 1.73.85a3.31 3.31 0 0 1 1 1.32c.214.507.32 1.067.32 1.68 0 .487-.073.947-.22 1.38a3.83 3.83 0 0 1-.62 1.18c-.266.353-.6.663-1 .93a4.927 4.927 0 0 1-1.35.63c.174.1.334.22.48.36.147.133.28.293.4.48l3.62 5.34Zm5.932-7.58c.507 0 .947-.063 1.32-.19.38-.127.69-.3.93-.52.247-.227.43-.493.55-.8.12-.307.18-.643.18-1.01 0-.733-.243-1.297-.73-1.69-.48-.393-1.217-.59-2.21-.59h-1.72v4.8h1.68Zm6.92 7.58h-2.43c-.46 0-.793-.18-1-.54l-3.04-4.63a1.048 1.048 0 0 0-.38-.37c-.133-.073-.333-.11-.6-.11h-1.15V15h-2.69V.54h4.41c.98 0 1.82.103 2.52.31.707.2 1.283.483 1.73.85.453.367.787.807 1 1.32.213.507.32 1.067.32 1.68 0 .487-.073.947-.22 1.38-.14.433-.347.827-.62 1.18-.267.353-.6.663-1 .93a4.927 4.927 0 0 1-1.35.63c.173.1.333.22.48.36.147.133.28.293.4.48l3.62 5.34Zm7.107-5.6V15h-2.68V9.4l-5.27-8.86h2.37c.234 0 .417.057.55.17.14.113.257.257.35.43l2.64 4.83c.154.287.287.557.4.81.12.253.227.507.32.76.087-.253.187-.507.3-.76.114-.253.244-.523.39-.81l2.63-4.83c.074-.147.184-.283.33-.41a.828.828 0 0 1 .56-.19h2.38l-5.27 8.86Z" fill="#DE3163"/></svg>