<svg width="25" height="25" fill="none" xmlns="http://www.w3.org/2000/svg"><g clip-path="url('#clip0_60_899')"><path d="M12.5 0C5.597 0 0 5.597 0 12.5S5.597 25 12.5 25 25 19.403 25 12.5 19.403 0 12.5 0Zm6.14 8.564-2.053 9.666c-.15.686-.559.852-1.129.53l-3.125-2.303-1.506 1.452a.79.79 0 0 1-.625.308h-.005l.222-3.182 5.791-5.23c.25-.223-.056-.349-.388-.127l-7.155 4.506-3.084-.962c-.666-.212-.685-.667.141-.994l12.048-4.644c.56-.204 1.048.134.867.98Z" fill="#7E838C"/></g><defs><clipPath id="clip0_60_899"><path fill="#fff" d="M0 0h25v25H0z"/></clipPath></defs></svg>