<svg width="24" height="24" fill="none" xmlns="http://www.w3.org/2000/svg"><path d="M11.965 13.477c3.554 0 6.404-3.028 6.404-6.72C18.37 3.065 15.52 0 11.965 0S5.56 3.028 5.56 6.72c0 3.692 2.85 6.757 6.405 6.757Zm0-11.705c2.604 0 4.715 2.216 4.715 4.948s-2.111 4.948-4.715 4.948c-2.604 0-4.716-2.179-4.716-4.911 0-2.732 2.112-4.985 4.716-4.985ZM.845 24h22.31c.458 0 .845-.406.845-.886 0-4.652-3.625-8.456-8.059-8.456H8.06C3.625 14.659 0 18.462 0 23.114c0 .48.387.886.845.886Zm7.214-7.57h7.882c3.238 0 5.877 2.512 6.3 5.798H1.76c.422-3.287 3.061-5.797 6.299-5.797Z" fill="#242734"/></svg>